<svg width="172" height="50" viewBox="0 0 172 50" fill="none" xmlns="http://www.w3.org/2000/svg">
<path d="M0.584 50V3.92H7.688L26.824 26.704L45.96 3.92H53.064V50H47.88V9.808L26.824 34.832L5.768 9.808V50H0.584ZM67.447 50C66.039 50 64.7377 49.6587 63.543 48.976C62.391 48.2507 61.4523 47.312 60.727 46.16C60.0443 44.9653 59.703 43.664 59.703 42.256V28.816H92.215V20.624C92.215 19.9413 91.959 19.3653 91.447 18.896C90.9777 18.384 90.4017 18.128 89.719 18.128H59.703V12.88H89.719C91.1697 12.88 92.471 13.2427 93.623 13.968C94.8177 14.6507 95.7563 15.5893 96.439 16.784C97.1643 17.936 97.527 19.216 97.527 20.624V50H67.447ZM67.447 44.752H92.215V34.064H64.951V42.256C64.951 42.9387 65.1857 43.536 65.655 44.048C66.167 44.5173 66.7643 44.752 67.447 44.752ZM111.26 50C109.852 50 108.55 49.6587 107.356 48.976C106.204 48.2507 105.265 47.312 104.54 46.16C103.857 44.9653 103.516 43.664 103.516 42.256V0.719997H108.764V42.256C108.764 42.9387 108.998 43.536 109.468 44.048C109.98 44.5173 110.577 44.752 111.26 44.752H117.532V50H111.26ZM129.947 50C128.539 50 127.238 49.6587 126.043 48.976C124.891 48.2507 123.952 47.312 123.227 46.16C122.544 44.9653 122.203 43.664 122.203 42.256V28.816H154.715V20.624C154.715 19.9413 154.459 19.3653 153.947 18.896C153.478 18.384 152.902 18.128 152.219 18.128H122.203V12.88H152.219C153.67 12.88 154.971 13.2427 156.123 13.968C157.318 14.6507 158.256 15.5893 158.939 16.784C159.664 17.936 160.027 19.216 160.027 20.624V50H129.947ZM129.947 44.752H154.715V34.064H127.451V42.256C127.451 42.9387 127.686 43.536 128.155 44.048C128.667 44.5173 129.264 44.752 129.947 44.752ZM166.641 50V12.88H171.889V50H166.641ZM166.641 5.968V0.719997H171.889V5.968H166.641Z" fill="#EF8435"/>
</svg>
